<svg width="51" height="50" viewBox="0 0 51 50" fill="none" xmlns="http://www.w3.org/2000/svg">
<path d="M19.077 41.1936H7.35295C3.30329 41.1936 0.0285645 44.4683 0.0285645 48.5179C0.0285645 49.3179 0.678516 49.9928 1.50345 49.9928H24.9515C25.7514 49.9928 26.4264 49.3429 26.4264 48.5179C26.4014 44.4933 23.1016 41.1936 19.077 41.1936Z" fill="#353FE8"/>
<path d="M29.5264 23.395L23.002 29.9195C28.9015 36.244 33.1011 40.4436 35.0259 42.7434L42.7753 34.9941C40.4505 33.0692 35.8509 29.2695 29.5264 23.395Z" fill="#353FE8"/>
<path d="M34.6507 7.92133V7.89632L28.3512 1.59686C26.2014 -0.502965 22.5517 -0.627957 20.2769 1.79684C19.577 2.54678 19.252 3.32171 18.7271 4.37162L31.9759 17.6205C32.9759 17.1206 33.7508 16.7956 34.5507 16.0706C36.8006 13.8708 36.9755 10.2461 34.6507 7.92133Z" fill="#353FE8"/>
<path d="M4.30334 18.9704C3.35342 19.4704 2.50349 19.8204 1.80355 20.6203C-0.371267 22.6451 -0.746248 26.2948 1.60356 28.6696L7.87804 34.9691C10.1279 37.1689 13.7025 36.8939 15.9024 34.6941C16.7023 33.8942 17.0273 33.1692 17.5022 32.1693C17.0773 31.7193 5.07828 19.6954 4.30334 18.9704Z" fill="#353FE8"/>
<path d="M17.1523 6.92142L6.80322 17.2956L19.2272 29.7195C28.6014 20.3453 26.7015 22.2201 29.6013 19.3704L17.1523 6.92142Z" fill="#353FE8"/>
<path d="M49.8244 41.7685C49.2744 39.4187 47.5246 37.4939 45.2748 36.6189L36.6255 45.2682C37.4754 47.518 39.4252 49.2429 41.7751 49.8178C44.2748 50.3678 46.3997 49.6428 48.0245 48.043C49.6994 46.3181 50.3743 44.0683 49.8244 41.7685Z" fill="#353FE8"/>
</svg>
