<svg width="1410" height="250" viewBox="0 0 1410 250" fill="none" xmlns="http://www.w3.org/2000/svg">
<g opacity="0.4">
<g opacity="0.56">
<path d="M4.5708 213.055C66.2726 213.055 66.2726 211.844 134.83 205.792C268.517 193.787 381.637 174.52 511.897 157.673C635.3 140.826 765.559 120.348 899.246 113.186C1036.36 104.712 1300.31 101.181 1399.72 143.247L1396.29 154.041C1341.44 142.037 1218.04 150.41 1156.34 154.041C1056.93 158.883 964.376 169.677 871.823 182.892C714.141 205.792 559.887 222.638 405.632 245.437L27.0649 238.647L4.5708 213.055Z" fill="url(#paint0_linear_263_558)"/>
</g>
<g opacity="0.16">
<path d="M0 167.659C17.1394 162.817 54.846 161.607 78.8411 159.186C191.961 149.602 298.225 132.756 397.634 113.488C569.028 79.7945 712.998 30.465 915.243 21.9913C1127.77 12.4078 1302.59 35.2063 1402 101.382L1398.57 126.703C1282.03 77.3734 1052.36 61.7373 901.532 100.273C798.695 126.703 716.426 161.607 610.162 186.927C476.475 216.989 332.504 229.094 181.677 238.678C119.976 242.309 62.3609 215.641 4.08696 220.382L0 167.659Z" fill="url(#paint1_linear_263_558)"/>
</g>
<g opacity="0.56">
<path d="M7.99878 122.769C28.566 128.821 79.9842 130.032 114.263 130.032C234.239 131.242 357.642 123.979 474.19 115.606C611.305 107.133 741.564 86.7551 882.107 92.707C1002.08 97.5491 1115.2 109.554 1214.61 132.453C1269.46 146.879 1362.01 167.357 1396.29 189.046L1406.57 167.357C1314.02 142.036 1235.18 113.185 1142.63 90.2859C1019.22 60.2242 899.247 25.3203 744.992 22.8992C494.757 19.2676 260.29 132.352 13.4834 105.821L7.99878 122.769Z" fill="url(#paint2_linear_263_558)"/>
</g>
<g opacity="0.14">
<path d="M1.14246 98.6589C86.8394 84.2333 169.108 72.2288 251.377 49.3295C367.925 16.8467 470.762 0 621.588 0C731.28 0 851.941 8.47377 957.52 16.8467C1154.97 32.3819 1390.12 115.304 1400.4 120.146V143.651C1304.42 117.12 936.953 39.6451 816.977 50.54C649.011 64.9656 474.189 109.554 333.646 142.037C265.089 158.883 186.248 175.73 97.123 178.151C69.7 178.151 28.5655 176.94 7.99821 176.94L1.14246 98.6589Z" fill="url(#paint3_linear_263_558)"/>
</g>
<path d="M1410 131.142C1358.58 97.4484 1173.48 87.764 1080.92 85.4438C926.669 80.6017 786.127 84.2333 659.295 114.295C491.329 155.252 306.452 221.529 87.0681 214.366C59.6451 213.156 31.0795 210.735 7.08435 204.783L7.99845 213.156C189.676 245.639 433.055 183.094 614.733 162.616C762.131 146.98 943.809 160.195 1074.07 187.936C1166.62 208.414 1294.84 207.466 1407.96 215.939L1410 131.142Z" fill="url(#paint4_linear_263_558)"/>
<path opacity="0.1" d="M1403.54 224.381C1392.57 221.961 1381.99 219.641 1371.61 217.523M1408.04 235.577C1397.27 233.257 1386.89 231.038 1376.7 228.92M1372 162.856C1359.46 160.335 1347.32 158.015 1335.56 155.796M1377.68 172.438C1365.53 169.917 1353.58 167.496 1342.22 165.378M1337.52 108.997C1323.03 106.778 1309.12 104.761 1295.6 102.945M1343.2 117.57C1329.1 115.25 1315.39 113.132 1302.26 111.216M1400.21 186.054C1346.34 174.052 1299.52 165.68 1257.99 160.133M1410 206.529C1358.68 194.728 1313.62 186.357 1273.27 180.709M1405.3 196.241C1352.8 184.34 1306.96 175.867 1266.02 170.32M1368.67 129.673C1306.18 118.478 1252.9 111.115 1206.28 106.778M1379.25 147.727C1319.7 136.027 1268.76 128.16 1224.1 123.42M1389.82 166.487C1333.21 154.586 1284.44 146.315 1241.54 141.07M1228.8 139.658C1219.2 138.65 1210 137.742 1200.99 136.935M1373.96 138.65C1313.04 127.252 1260.73 119.587 1215.29 114.947M1384.53 157.006C1326.55 145.206 1276.6 137.137 1232.92 132.094M1395.11 176.17C1339.87 164.167 1292.08 155.897 1249.96 150.45M1237.42 148.938C1228.02 147.828 1219.01 146.92 1210.19 146.113M1358.09 112.224C1292.66 101.634 1236.83 94.8762 1188.25 91.2452M1173.95 90.2366C1163.18 89.5306 1152.8 89.0263 1142.81 88.6229M1353 103.752C1286.2 93.565 1229 87.11 1179.44 83.7816M1363.38 120.898C1299.32 110.005 1244.67 102.945 1197.27 98.9107M1183.16 97.8012C1172.58 96.9943 1162.59 96.3891 1152.8 95.9857M1258.97 160.335C1217.44 154.787 1181.01 152.165 1147.9 151.661M1274.05 180.809C1233.5 175.06 1197.66 172.135 1164.75 171.429M1266.61 170.32C1225.67 164.672 1189.43 161.848 1156.52 161.243M1207.06 106.98C1160.44 102.642 1120.67 101.331 1085.61 102.441M1225.08 123.521C1180.22 118.679 1141.83 116.864 1107.94 117.368M1242.52 141.272C1199.42 136.027 1162.2 133.708 1128.9 133.808M1118.91 133.808C1111.47 133.909 1104.22 134.111 1097.17 134.514M1216.07 115.048C1170.43 110.409 1131.25 108.896 1096.77 109.703M1233.9 132.195C1190.02 127.152 1152.21 125.034 1118.52 125.336M1250.74 150.652C1208.43 145.206 1171.6 142.785 1138.5 142.583M1128.7 142.482C1121.26 142.583 1114.21 142.684 1107.16 142.987M1171.8 76.6204C1121.06 73.5946 1077.97 73.4938 1040.55 75.7127M1189.23 91.3461C1140.65 87.6143 1099.32 86.9082 1063.08 88.522M1052.5 89.1272C1044.47 89.6315 1036.83 90.1358 1029.19 90.8418M1163.38 69.4594C1111.66 66.7361 1067.78 67.0387 1029.58 69.4594M1180.42 83.8824C1130.66 80.4532 1088.55 80.1506 1051.72 81.9661M1198.24 99.0115C1150.64 94.9771 1110.1 93.9685 1074.44 95.2797M1063.87 95.784C1056.03 96.1874 1048.39 96.6917 1040.95 97.2969M1148.69 151.661C1115.58 151.257 1086 153.073 1057.99 156.401M1165.53 171.429C1132.62 170.623 1102.46 171.934 1073.66 174.859M1157.3 161.343C1124.39 160.738 1094.62 162.251 1066.22 165.479M1086.39 102.34C1051.33 103.349 1020.97 106.677 993.346 111.619M1108.53 117.368C1074.44 117.872 1044.67 120.697 1017.05 125.134M1129.49 133.708C1095.99 133.708 1066.41 136.027 1038.79 139.961M1030.56 141.171C1024.3 142.18 1018.22 143.188 1012.15 144.298M1097.56 109.703C1063.08 110.409 1032.92 113.535 1005.49 118.175M1119.11 125.336C1085.41 125.538 1055.64 128.16 1028.21 132.296M1139.28 142.482C1106.18 142.281 1076.6 144.298 1048.78 148.03M1040.36 149.139C1034.09 150.047 1028.02 151.056 1021.75 152.064M1019.4 63.4077C980.417 66.131 947.312 70.8714 917.733 77.1248M1041.34 75.6118C1003.73 77.7299 971.798 82.0669 943.198 87.9169M1063.87 88.522C1027.63 90.1358 996.676 93.9685 968.468 99.3141M960.24 100.928C953.972 102.239 947.899 103.55 941.827 104.962M1030.17 69.4594C991.974 71.88 959.457 76.4187 930.27 82.4704M1052.5 81.9661C1015.68 83.7816 984.139 87.9168 955.735 93.565M1075.23 95.2797C1039.58 96.5909 1009.02 100.222 981.201 105.366M972.777 106.98C966.509 108.19 960.436 109.501 954.56 110.913M884.236 68.6525C877.38 70.1654 870.915 71.7791 864.451 73.3929M896.577 73.7964C889.917 75.3093 883.452 76.8222 877.184 78.4359M1058.58 156.401C1030.56 159.83 1003.92 164.773 977.283 170.723M1074.25 174.758C1045.45 177.683 1017.83 182.121 989.82 187.466M1066.8 165.277C1038.4 168.404 1011.37 173.144 984.139 178.792M993.933 111.518C966.313 116.36 941.239 122.915 916.753 130.177M1017.64 125.034C990.015 129.471 964.746 135.422 939.868 142.382M1039.38 139.86C1011.76 143.794 985.902 149.24 960.24 155.695M952.405 157.712C946.528 159.225 940.652 160.738 934.775 162.352M1006.08 118.175C978.458 122.815 953.384 129.068 928.702 136.128M1028.8 132.296C1001.18 136.431 975.716 142.18 950.446 148.938M1049.37 147.929C1021.55 151.56 995.5 156.805 969.251 163.058M961.22 164.874C955.147 166.286 949.271 167.798 943.198 169.311M918.516 76.923C888.937 83.0755 863.08 90.5392 838.594 98.6081M943.786 87.7151C914.99 93.4642 889.721 100.726 865.431 108.593M969.055 99.2132C941.043 104.559 915.774 111.417 891.484 118.982M884.432 121.302C878.947 123.016 873.462 124.832 867.977 126.647M931.053 82.2686C901.866 88.2194 876.4 95.5823 851.914 103.55M956.519 93.3633C928.115 98.9107 902.845 105.971 878.555 113.737M981.592 105.265C953.776 110.409 928.702 117.066 904.216 124.529M897.164 126.748C891.68 128.463 886.195 130.278 880.71 131.993M894.03 66.5344C863.472 72.9895 836.831 80.7557 811.953 88.8246M804.509 91.3461C798.828 93.2625 793.344 95.078 787.859 96.9943M905.979 71.6783C876.008 78.0325 849.759 85.5971 825.077 93.6659M817.83 96.1874C812.345 98.0029 806.86 99.9193 801.375 101.836M743.392 66.2318C737.319 68.0473 731.443 69.9637 725.566 71.7792M977.675 170.623C950.838 176.573 924.001 183.432 894.814 190.593M990.603 187.365C962.591 192.711 934.187 199.065 903.629 205.823M896.577 224.583C889.133 225.995 881.493 227.407 873.854 228.819M984.726 178.691C957.302 184.34 929.682 190.996 899.907 197.956M895.401 233.761C887.762 235.073 879.926 236.485 872.091 237.796M917.145 129.976C892.659 137.238 868.565 145.307 843.099 153.476M940.26 142.18C915.186 149.038 890.504 156.805 863.863 164.672M960.828 155.594C935.167 162.049 909.309 169.412 881.689 176.977M873.07 179.297C866.606 181.011 860.142 182.726 853.481 184.541M929.094 135.927C904.412 142.987 879.926 150.955 853.873 158.923M951.034 148.736C925.764 155.393 900.495 162.957 873.266 170.723M969.643 162.856C943.394 169.009 917.145 176.17 888.741 183.533M880.318 185.853C873.854 187.567 866.998 189.282 860.337 190.996M838.986 98.5072C814.5 106.576 791.385 115.149 767.486 123.42M865.822 108.392C841.532 116.259 818.417 124.731 794.127 133.102M892.071 118.881C867.781 126.446 844.275 134.817 819.397 143.088M811.953 145.508C806.272 147.425 800.396 149.24 794.519 151.156M852.502 103.349C828.212 111.317 805.097 119.89 781.003 128.16M879.143 113.535C854.853 121.302 831.542 129.673 807.056 138.045M904.804 124.328C880.318 131.791 856.615 139.961 831.542 148.231M823.902 150.652C818.025 152.568 812.149 154.384 806.272 156.199M762.981 68.8542C736.536 77.0239 712.442 85.3953 688.152 93.2625M786.879 78.9402C761.218 87.11 737.711 95.6831 713.813 103.752M812.345 88.7237C787.467 96.8934 764.156 105.467 740.454 113.737M733.206 116.158C727.721 117.973 722.236 119.89 716.751 121.705M774.734 73.9981C748.681 82.1678 724.979 90.6401 700.884 98.6081M799.416 83.8824C774.147 92.0521 750.836 100.625 726.937 108.795M825.665 93.565C800.983 101.634 777.868 110.308 753.97 118.578M746.722 121.1C741.237 123.016 735.752 124.832 730.268 126.647M751.815 63.6094C724.979 71.6783 700.297 79.9488 676.006 87.7151M668.759 90.0349C663.274 91.7495 657.593 93.4642 652.108 95.0779M895.597 190.492C866.606 197.653 835.46 205.117 800.396 212.278M904.216 205.621C873.658 212.278 840.944 219.338 804.509 226.197M907.155 222.667C874.833 228.819 840.553 235.274 802.55 241.628M790.797 243.545C781.982 244.957 772.971 246.369 763.764 247.781M900.495 197.855C870.719 204.814 838.79 212.076 803.138 219.036M906.371 213.892C875.029 220.347 841.532 227.105 804.117 233.66M906.175 231.946C873.07 237.695 837.81 243.948 798.828 250M843.687 153.275C818.026 161.444 790.993 169.614 760.043 177.078M864.647 164.571C838.202 172.438 809.798 180.507 777.672 187.971M882.081 176.876C854.461 184.44 824.686 192.308 791.189 199.67M781.003 201.788C773.167 203.402 765.136 205.117 756.908 206.63M854.461 158.822C828.408 166.891 800.787 174.96 769.249 182.524M873.854 170.522C846.821 178.288 817.83 186.256 784.92 193.619M889.329 183.432C860.925 190.795 830.562 198.46 796.282 205.722M786.096 207.941C778.064 209.555 769.837 211.169 761.414 212.782M767.878 123.218C743.98 131.59 719.298 139.658 691.482 146.719M794.519 132.901C770.229 141.272 744.959 149.442 716.164 156.805M819.984 142.886C795.107 151.156 769.053 159.427 739.278 166.891M730.268 169.009C723.411 170.623 716.164 172.236 708.916 173.85M781.394 128.059C757.3 136.431 732.226 144.601 704.214 151.762M807.448 137.843C782.961 146.214 757.104 154.384 728.113 161.848M832.129 148.03C806.86 156.3 780.219 164.47 750.052 171.934M740.845 174.153C733.794 175.867 726.546 177.481 719.102 178.994M688.739 93.0607C664.645 100.928 640.355 108.291 614.106 114.342M714.205 103.651C690.306 111.72 666.212 119.385 639.767 125.84M740.845 113.535C717.143 121.806 692.853 129.673 665.624 136.532M657.593 138.549C651.325 140.062 644.86 141.474 638.2 142.785M701.276 98.4064C677.378 106.374 653.283 113.939 626.838 120.192M727.525 108.593C703.823 116.763 679.532 124.63 652.696 131.186M754.362 118.478C730.463 126.748 705.977 134.817 678.749 141.776M670.522 143.794C664.057 145.307 657.593 146.819 650.933 148.231M676.594 87.6143C652.108 95.3805 628.014 102.542 601.765 108.291M593.733 110.005C587.661 111.317 581.588 112.426 575.124 113.535M801.179 212.076C766.311 219.237 727.329 225.995 682.863 231.845M805.097 225.995C768.662 232.753 728.309 239.309 682.667 245.058M803.922 218.834C768.27 225.793 728.7 232.551 683.45 238.3M760.63 176.977C729.876 184.44 695.204 191.299 654.851 196.645M778.26 187.87C746.134 195.333 710.287 202.293 668.367 207.84M791.972 199.469C758.475 206.832 721.061 213.791 677.769 219.54M664.645 221.154C654.459 222.364 644.077 223.574 633.303 224.684M769.837 182.322C738.299 189.786 703.235 196.745 662.098 202.192M785.508 193.518C752.795 200.982 715.968 207.84 673.46 213.589M797.065 205.621C762.785 212.883 724.783 219.742 680.708 225.592M667.583 227.205C657.397 228.517 646.819 229.727 635.849 230.836M692.069 146.618C664.253 153.678 633.499 159.73 597.455 163.966M716.947 156.704C688.347 163.966 656.418 170.421 619.003 175.06M739.866 166.689C710.287 174.153 676.986 180.809 638.2 185.853M626.447 187.365C617.24 188.475 607.837 189.484 598.239 190.29M704.606 151.661C676.398 158.822 645.056 165.075 608.425 169.614M728.7 161.646C699.513 169.009 666.996 175.565 628.797 180.406M750.64 171.833C720.473 179.297 686.584 186.054 647.015 191.299M634.87 192.812C625.663 193.921 616.065 194.93 606.074 195.939M614.693 114.241C588.444 120.293 560.236 125.134 527.523 127.858M640.355 125.639C613.91 132.094 584.918 137.339 551.226 140.566M666.408 136.431C639.375 143.188 609.6 148.938 574.928 152.669M564.154 153.678C555.927 154.485 547.7 155.09 538.885 155.695M627.426 120.091C601.177 126.345 572.382 131.388 539.472 134.414M653.283 131.085C626.447 137.742 597.259 143.188 562.979 146.719M679.337 141.575C651.912 148.534 621.745 154.384 586.29 158.418M575.516 159.528C567.288 160.335 558.669 161.041 549.854 161.646M602.157 108.19C575.908 114.04 547.895 118.578 515.77 120.999M683.646 231.744C639.179 237.594 588.836 242.334 531.049 245.562M655.83 196.645C615.477 202.091 569.443 206.025 515.378 207.739M669.15 207.739C627.426 213.387 579.825 217.724 524.193 220.044M678.749 219.338C635.653 225.087 586.485 229.727 529.678 232.551M512.44 233.358C499.119 233.862 485.407 234.366 471.303 234.669M662.882 202.091C621.941 207.638 574.928 211.774 520.079 213.791M674.439 213.488C631.932 219.237 583.547 223.675 527.523 226.298M681.687 225.39C637.808 231.24 588.248 235.98 530.853 238.905M513.615 239.813C500.295 240.418 486.387 240.922 472.087 241.326M598.239 163.966C562.195 168.202 521.059 170.623 472.283 170.522M619.787 174.96C582.372 179.7 539.472 182.625 488.933 183.129M638.984 185.752C600.198 190.795 555.731 194.325 503.233 195.434M487.366 195.737C475.025 195.838 462.292 195.939 449.168 195.838M609.209 169.513C572.577 173.951 530.461 176.674 480.902 176.876M629.581 180.305C591.579 185.247 547.895 188.475 496.377 189.282M647.799 191.198C608.229 196.443 562.979 200.175 509.697 201.587M493.439 201.99C480.902 202.192 467.973 202.293 454.653 202.293M528.111 127.757C495.593 130.48 458.766 131.186 415.671 129.068M552.009 140.566C518.512 143.794 480.314 145.105 435.26 143.592M575.516 152.569C540.844 156.401 501.274 158.217 454.261 157.41M440.157 157.006C429.187 156.704 417.826 156.2 406.072 155.594M540.06 134.313C507.151 137.339 469.54 138.347 425.465 136.532M563.762 146.618C529.678 150.148 490.892 151.762 444.858 150.551M587.073 158.318C551.813 162.352 511.264 164.47 463.468 163.966M448.972 163.764C437.806 163.562 426.053 163.159 414.104 162.655M532.42 245.461C474.829 248.689 409.598 250.202 334.965 249.496M516.357 207.638C462.488 209.454 400.587 209.05 328.501 205.621M525.368 219.943C469.932 222.263 406.66 222.566 333.202 220.145M530.853 232.45C474.241 235.274 409.598 236.182 335.357 234.669M312.829 234.165C295.395 233.66 277.57 233.055 259.156 232.349M521.255 213.791C466.602 215.808 403.918 215.808 331.243 212.883M528.503 226.197C472.478 228.819 408.423 229.424 334.573 227.407M532.224 238.905C475.025 241.931 410.186 243.141 335.553 242.032M312.829 241.628C295.395 241.225 277.57 240.721 259.156 240.116M473.458 170.522C424.878 170.421 368.658 167.597 302.839 161.444M489.913 183.129C439.373 183.634 381.194 181.717 313.025 176.472M504.408 195.434C452.106 196.645 391.968 195.434 321.84 191.097M300.488 189.786C284.034 188.677 266.992 187.365 249.557 185.953M481.881 176.876C432.321 177.078 375.122 174.758 308.128 169.009M497.356 189.282C446.034 190.089 386.679 188.576 317.531 183.835M510.677 201.587C457.591 203.1 396.474 202.293 325.366 198.46M303.819 197.149C287.168 196.14 269.93 194.93 252.3 193.619M436.239 143.693C391.381 142.281 339.666 138.045 278.941 130.177M455.24 157.41C408.423 156.603 354.554 153.073 291.282 146.113M445.838 150.652C400 149.543 347.306 145.609 285.209 138.246M464.447 163.966C416.846 163.461 361.802 160.335 297.158 153.779M336.336 249.395C261.898 248.689 178.058 245.663 82.8565 239.712M330.068 205.722C258.177 202.394 176.295 196.14 82.2688 186.155M334.769 220.246C261.507 217.825 178.45 212.681 83.2483 204.007M336.924 234.77C262.878 233.257 179.038 229.223 83.4442 221.86M332.81 212.984C260.331 210.16 177.666 204.411 83.0524 195.132M336.14 227.508C262.486 225.592 178.842 220.952 83.4442 212.984M337.12 242.032C262.682 240.922 178.842 237.392 83.4442 230.736M304.21 161.545C238.392 155.493 162.975 145.912 75.6086 132.195M314.397 176.573C246.423 171.329 168.46 162.856 78.3511 150.35M323.212 191.198C253.083 186.962 172.965 179.599 80.7017 168.303M309.499 169.11C242.701 163.461 165.913 154.384 77.1757 141.272M319.098 183.936C249.949 179.196 170.81 171.228 79.5264 159.326M326.933 198.46C255.826 194.728 174.924 187.87 81.4853 177.179" stroke="white" stroke-width="3"/>
</g>
<defs>
<linearGradient id="paint0_linear_263_558" x1="1399.67" y1="177.879" x2="4.58993" y2="177.879" gradientUnits="userSpaceOnUse">
<stop stop-color="#60212B"/>
<stop offset="0.0001" stop-color="#E36D26"/>
<stop offset="1" stop-color="#FBB679"/>
</linearGradient>
<linearGradient id="paint1_linear_263_558" x1="1401.95" y1="134.753" x2="0.0192192" y2="134.753" gradientUnits="userSpaceOnUse">
<stop stop-color="#752235"/>
<stop offset="1" stop-color="#E62D3E"/>
</linearGradient>
<linearGradient id="paint2_linear_263_558" x1="1406.52" y1="105.873" x2="8.01795" y2="105.873" gradientUnits="userSpaceOnUse">
<stop stop-color="#FBB578"/>
<stop offset="1" stop-color="#FB7B23"/>
</linearGradient>
<linearGradient id="paint3_linear_263_558" x1="1400.29" y1="89.0646" x2="1.16164" y2="89.0646" gradientUnits="userSpaceOnUse">
<stop stop-color="#752235"/>
<stop offset="1" stop-color="#E62D3E"/>
</linearGradient>
<linearGradient id="paint4_linear_263_558" x1="1409.95" y1="164.011" x2="7.04689" y2="164.011" gradientUnits="userSpaceOnUse">
<stop stop-color="#FBB77A"/>
<stop offset="1" stop-color="#FF881F"/>
</linearGradient>
</defs>
</svg>
