<svg width="60" height="60" viewBox="0 0 60 60" fill="none" xmlns="http://www.w3.org/2000/svg">
<circle cx="30" cy="30" r="30" fill="#D9D9D9"/>
<path d="M24.4218 27.988C26.1377 29.153 28.155 29.7748 30.2187 29.7748C32.9851 29.7717 35.6373 28.6536 37.5934 26.666C39.5495 24.6784 40.6498 21.9835 40.6529 19.1725C40.6529 17.0756 40.0409 15.0258 38.8944 13.2823C37.7479 11.5387 36.1183 10.1798 34.2117 9.37736C32.3051 8.57491 30.2072 8.36495 28.1831 8.77404C26.1591 9.18313 24.2999 10.1929 22.8407 11.6756C21.3814 13.1584 20.3877 15.0475 19.9851 17.1042C19.5824 19.1608 19.7891 21.2925 20.5788 23.2298C21.3686 25.1672 22.7059 26.823 24.4218 27.988Z" fill="#F2F2F2"/>
<path d="M45.4882 39.8415C48.7495 43.1554 51.0022 46.2928 51.0022 50.9792C48.0332 54.8346 40.6529 59.5467 30.2187 59.9751C30.2187 59.9751 20.4092 60.8318 9.85938 52.2644C9.85938 47.5779 11.6879 43.1554 14.9492 39.8415C18.2105 36.5277 25.6065 34.4869 30.2187 34.4869C34.8309 34.4869 42.2269 36.5277 45.4882 39.8415Z" fill="#F2F2F2"/>
</svg>
